<?xml version="1.0" standalone="no"?>
<svg xmlns="http://www.w3.org/2000/svg" width="517.9700176917447" height="314.2500176917447" viewBox="0 0 517.9700176917447 314.2500176917447"><g fill="#ff6940" color="#ff6940" transform="translate(0 5.612) scale(5.6116075)"><svg width="56.0" height="54.0" x="0.0" y="0.0" viewBox="0 0 56 54"><path fill="currentColor" fill-rule="evenodd" d="M20.14 11.806c.69 0 1.248.302 1.248.676 0 .373-.559.676-1.248.676-.69 0-1.248-.303-1.248-.676 0-.374.559-.676 1.248-.676m20.405 21.523l.534.01c5.6.225 9.9 4.467 9.9 10.137 0 0 .297 5.7-3.224 9.674-.285.323-.808.047-.72-.374.324-1.532.214-3.749-2.713-4.567-2.838-.792-5.67-.042-8.392.814-5.072 1.593-10.064 4.536-15.43 4.937-2.73.204-5.532-.369-7.9-1.742-4.398-2.548-6.242-7.656-6.572-12.497-.023-.334-.097-1.047.156-1.103.367-.077.692.66.855.874.337.445.72.855 1.141 1.221 2.783 2.425 6.471 2.177 9.853 1.42 3.721-.832 6.965-2.528 10.252-4.388 3.181-1.8 6.462-3.691 10.13-4.252.88-.135 1.774-.19 2.664-.154zm1.404 5.878c-1.67-.286-3.379-.148-5.01.232-1.627.412-3.168 1.058-4.6 1.858a29.406 29.406 0 0 0-4.054 2.738c1.534-.572 3.004-1.25 4.477-1.864 1.477-.602 2.954-1.16 4.47-1.518a16.128 16.128 0 0 1 4.608-.477 13.26 13.26 0 0 1 4.59 1.103c-1.223-1.096-2.818-1.798-4.481-2.072zM21.752 0c1.066 0 3.484 3.12 3.484 3.12S32.44 7.49 35.533 15.653c3.094 8.165-3.068 15.965-3.068 15.965a21.32 21.32 0 0 0 .759-4.477c.047-.834.038-1.671-.026-2.503-.022-.278-.138-.71-.229-1.134-.056-.262-.4-.307-.537-.077a4.679 4.679 0 0 1-1.004 1.177c-.049-1.565-.206-3.147-.744-4.618-.462-1.262-1.228-2.444-2.29-3.253a.252.252 0 0 0-.401.243 4.672 4.672 0 0 1-.116 2.121c-1.659-1.66-3.973-2.53-6.294-2.886-1.924-.295-3.877-.266-5.827-.224-.377.008-.494.51-.164.692 1.58.875 3.253 1.227 5.08 1.589 2.24.444 4.149 1.495 5.5 3.366 2.03 2.809 1.345 9.595.963 12.34a2.533 2.533 0 0 1-1.21 1.827c-2.498 1.493-5.553 2.77-9.429 3.567-1.91.392-3.986.347-5.839-.3-.903-.315-1.758-.85-2.29-1.646-.653-.976-.749-2.253-.45-3.389.3-1.136.96-2.146 1.717-3.044 2.322-2.753 5.518-4.529 8.224-6.853 1.123-.964 2.342-2.005 2.822-3.471.023-.068.295-1.26.084-1.267-3.207-.114-8.018-1.093-9.7-4.246-.1-.185-.188-.397-.136-.6.065-.257.325-.407.56-.528 2.168-1.113 4.257-2.135 6.102-3.767a19.55 19.55 0 0 0 2.2-2.29c.297-.364 1.429-1.346 1.39-1.83 0-.001-.494-6.137.572-6.137z"></path></svg></g><path fill="#000000" fill-rule="nonzero" d="M12.52 14.28L12.52 14.28L10.40 14.28L10.40 27.68L13 27.68L13 28.44L0 28.44L0 27.68L2.60 27.68L2.60 1.20L0 1.20L0 0.44L12.08 0.44Q17.28 0.44 19.46 0.98Q21.64 1.52 22.52 2.28L22.52 2.28Q24.44 3.84 24.44 7.24Q24.44 10.64 22.76 12.10Q21.08 13.56 17.64 13.84L17.64 13.84L17.64 13.96Q20.88 14.40 22.16 15.88Q23.44 17.36 23.44 20.84L23.44 20.84L23.44 22.96Q23.44 25.04 23.66 25.76Q23.88 26.48 24.60 26.48Q25.32 26.48 25.74 25.82Q26.16 25.16 26.52 23.04L26.52 23.04L27.20 23.12Q26.76 26.52 25.66 27.68Q24.56 28.84 21.28 28.84Q18 28.84 16.62 27.30Q15.24 25.76 15.24 21.52L15.24 21.52L15.24 18.60Q15.24 16.36 14.66 15.32Q14.08 14.28 12.52 14.28ZM11.72 1.20L10.40 1.20L10.40 13.52L11.68 13.52Q13.96 13.52 15.06 12.12Q16.16 10.72 16.16 7.56L16.16 7.56L16.16 6.40Q16.16 3.24 15.10 2.22Q14.04 1.20 11.72 1.20L11.72 1.20ZM47.28 16.08L47.28 16.08L47.28 13.12Q47.28 5.80 46.56 3.88L46.56 3.88Q45.76 1.68 44.28 1.16L44.28 1.16Q43.44 0.84 42.24 0.84Q41.04 0.84 40.18 1.16Q39.32 1.48 38.76 2.28Q38.20 3.08 37.86 3.96Q37.52 4.84 37.32 6.44L37.32 6.44Q37.08 8.76 37.08 13.28L37.08 13.28L37.08 16.16Q37.08 21.04 37.46 23.10Q37.84 25.16 38.40 26.04L38.40 26.04Q39.64 28 42.24 28L42.24 28Q45.40 28 46.34 25.34Q47.28 22.68 47.28 16.08ZM42.16 28.84Q35.48 28.84 32.18 25.22Q28.88 21.60 28.88 14.74Q28.88 7.88 32.42 3.94Q35.96 0 42.44 0Q48.92 0 52.22 3.74Q55.52 7.48 55.52 14.36Q55.52 21.24 52.18 25.04Q48.84 28.84 42.16 28.84ZM85.72 13.96L85.72 13.96Q85.72 22.20 81.08 25.44L81.08 25.44Q76.80 28.44 69.32 28.44L69.32 28.44L58 28.44L58 27.68L60.64 27.68L60.64 1.20L58 1.20L58 0.44L70.36 0.44Q78.04 0.44 81.88 3.58Q85.72 6.72 85.72 13.96ZM68.44 1.20L68.44 27.68L69.96 27.68Q74 27.68 75.74 24.82Q77.48 21.96 77.48 15.24L77.48 15.24L77.48 12.92Q77.48 3.92 74.04 2.08L74.04 2.08Q72.40 1.20 69.40 1.20L69.40 1.20L68.44 1.20ZM115.92 13.96L115.92 13.96Q115.92 22.20 111.28 25.44L111.28 25.44Q107 28.44 99.52 28.44L99.52 28.44L88.20 28.44L88.20 27.68L90.84 27.68L90.84 1.20L88.20 1.20L88.20 0.44L100.56 0.44Q108.24 0.44 112.08 3.58Q115.92 6.72 115.92 13.96ZM98.64 1.20L98.64 27.68L100.16 27.68Q104.20 27.68 105.94 24.82Q107.68 21.96 107.68 15.24L107.68 15.24L107.68 12.92Q107.68 3.92 104.24 2.08L104.24 2.08Q102.60 1.20 99.60 1.20L99.60 1.20L98.64 1.20ZM118.40 1.32L118.40 0.44L139.20 0.44L139.60 8.36L138.88 8.36Q137.20 4.32 135.36 2.82Q133.52 1.32 129.96 1.32L129.96 1.32L128.56 1.32L128.56 13.68L129.92 13.68Q131.80 13.68 133.08 12.26Q134.36 10.84 134.88 8.44L134.88 8.44L135.48 8.44L135.48 20.28L134.80 20.28Q134.08 17.28 132.86 16Q131.64 14.72 129.52 14.72L129.52 14.72L128.56 14.72L128.56 27.56L130.08 27.56Q133.76 27.56 136.34 25.36Q138.92 23.16 139.88 19.72L139.88 19.72L140.68 19.72L140.36 28.44L118.40 28.44L118.40 27.56L120.76 27.56L120.76 1.32L118.40 1.32ZM143.36 1.32L143.36 0.44L157.76 0.44L157.76 1.32L153.52 1.32L153.52 27.56L154.96 27.56Q158.36 27.56 160.38 25.48Q162.40 23.40 164.48 19.08L164.48 19.08L165.32 19.08L164.56 28.44L143.36 28.44L143.36 27.56L145.72 27.56L145.72 1.32L143.36 1.32ZM179.36 28L179.36 28Q181.36 28 182.90 26.92Q184.44 25.84 184.44 23.66Q184.44 21.48 182.78 20.32Q181.12 19.16 178.06 18.30Q175 17.44 173.62 16.80Q172.24 16.16 171 15.12L171 15.12Q168.52 13.04 168.52 8.68L168.52 8.68Q168.52 5.12 171.06 2.56Q173.60 0 178 0L178 0Q180.12 0 182.42 0.62Q184.72 1.24 185.28 1.24Q185.84 1.24 186.28 0.44L186.28 0.44L186.72 0.44L187 8.52L186.36 8.52Q184.44 5.04 182.34 2.94Q180.24 0.84 177.78 0.84Q175.32 0.84 173.96 1.98Q172.60 3.12 172.60 5.02Q172.60 6.92 174.22 7.94Q175.84 8.96 178.20 9.60Q180.56 10.24 181.30 10.48Q182.04 10.72 183.14 11.14Q184.24 11.56 184.94 12.02Q185.64 12.48 186.42 13.18Q187.20 13.88 187.64 14.72L187.64 14.72Q188.72 16.64 188.72 19.28L188.72 19.28Q188.72 23.60 186.02 26.22Q183.32 28.84 178.92 28.84L178.92 28.84Q176.64 28.84 173.70 28.24Q170.76 27.64 170.44 27.64L170.44 27.64Q169.88 27.64 169.36 28.84L169.36 28.84L168.80 28.84L168.40 19.32L169.08 19.32Q170.84 22.80 173.58 25.40Q176.32 28 179.36 28Z" transform="translate(329.251 0) scale(1)"></path><path fill="#000000" fill-rule="nonzero" d="M16.12 20.60L20.92 0L31.60 0L31.60 0.76L29.40 0.76L29.40 27.24L31.60 27.24L31.60 28L19.40 28L19.40 27.24L21.60 27.24L21.60 2.24L21.44 2.24L15.44 28L10.44 28L3.40 2.12L3.24 2.12L3.24 27.24L5.44 27.24L5.44 28L0 28L0 27.24L2.20 27.24L2.20 0.76L0 0.76L0 0L10.80 0L16.12 20.60ZM33.44 0.88L33.44 0L54.24 0L54.64 7.92L53.92 7.92Q52.24 3.88 50.40 2.38Q48.56 0.88 45 0.88L45 0.88L43.60 0.88L43.60 13.24L44.96 13.24Q46.84 13.24 48.12 11.82Q49.40 10.40 49.92 8L49.92 8L50.52 8L50.52 19.84L49.84 19.84Q49.12 16.84 47.90 15.56Q46.68 14.28 44.56 14.28L44.56 14.28L43.60 14.28L43.60 27.12L45.12 27.12Q48.80 27.12 51.38 24.92Q53.96 22.72 54.92 19.28L54.92 19.28L55.72 19.28L55.40 28L33.44 28L33.44 27.12L35.80 27.12L35.80 0.88L33.44 0.88ZM58.20 0L81.80 0L82.20 10.04L81.44 10.04Q79.68 4.72 78.32 2.78Q76.96 0.84 74.40 0.84L74.40 0.84L73.92 0.84L73.92 27.16L77.32 27.16L77.32 28L62.72 28L62.72 27.16L66.12 27.16L66.12 0.84L65.60 0.84Q63.04 0.84 61.64 2.86Q60.24 4.88 58.56 10.04L58.56 10.04L57.80 10.04L58.20 0Z" transform="translate(329.251 36.84) scale(2.296)"></path><path fill="#000000" fill-rule="nonzero" d="M0 1L0 0.24L11.96 0.24Q17.52 0.24 20.30 1.74Q23.08 3.24 23.08 6.80L23.08 6.80Q23.08 12.28 16.48 13.36L16.48 13.36L16.48 13.44Q24.48 14.44 24.48 20.40L24.48 20.40Q24.48 24.76 21.20 26.50Q17.92 28.24 11.76 28.24L11.76 28.24L0 28.24L0 27.48L2.60 27.48L2.60 1L0 1ZM11.32 14.08L10.40 14.08L10.40 27.48L12.28 27.48Q14.48 27.48 15.36 25.96Q16.24 24.44 16.24 21.48L16.24 21.48L16.24 19.36Q16.24 16.72 15.16 15.40Q14.08 14.08 11.32 14.08L11.32 14.08ZM11.68 1L10.40 1L10.40 13.32L11.44 13.32Q13.52 13.32 14.34 12.06Q15.16 10.80 15.16 8.20L15.16 8.20L15.16 6.32Q15.16 3.36 14.44 2.18Q13.72 1 11.68 1L11.68 1ZM38.76 27.48L41.60 27.48L38.68 18.84L30.76 18.84L27.68 27.48L30.68 27.48L30.68 28.24L24.56 28.24L24.56 27.48L26.44 27.48L36.64 0L39.92 0L50 27.48L51.84 27.48L51.84 28.24L38.76 28.24L38.76 27.48ZM38.36 17.96L34.88 7.48L31.12 17.96L38.36 17.96ZM65.20 14.08L65.20 14.08L63.08 14.08L63.08 27.48L65.68 27.48L65.68 28.24L52.68 28.24L52.68 27.48L55.28 27.48L55.28 1L52.68 1L52.68 0.24L64.76 0.24Q69.96 0.24 72.14 0.78Q74.32 1.32 75.20 2.08L75.20 2.08Q77.12 3.64 77.12 7.04Q77.12 10.44 75.44 11.90Q73.76 13.36 70.32 13.64L70.32 13.64L70.32 13.76Q73.56 14.20 74.84 15.68Q76.12 17.16 76.12 20.64L76.12 20.64L76.12 22.76Q76.12 24.84 76.34 25.56Q76.56 26.28 77.28 26.28Q78 26.28 78.42 25.62Q78.84 24.96 79.20 22.84L79.20 22.84L79.88 22.92Q79.44 26.32 78.34 27.48Q77.24 28.64 73.96 28.64Q70.68 28.64 69.30 27.10Q67.92 25.56 67.92 21.32L67.92 21.32L67.92 18.40Q67.92 16.16 67.34 15.12Q66.76 14.08 65.20 14.08ZM64.40 1L63.08 1L63.08 13.32L64.36 13.32Q66.64 13.32 67.74 11.92Q68.84 10.52 68.84 7.36L68.84 7.36L68.84 6.20Q68.84 3.04 67.78 2.02Q66.72 1 64.40 1L64.40 1ZM93.84 14.08L93.84 14.08L91.72 14.08L91.72 27.48L94.32 27.48L94.32 28.24L81.32 28.24L81.32 27.48L83.92 27.48L83.92 1L81.32 1L81.32 0.24L93.40 0.24Q98.60 0.24 100.78 0.78Q102.96 1.32 103.84 2.08L103.84 2.08Q105.76 3.64 105.76 7.04Q105.76 10.44 104.08 11.90Q102.40 13.36 98.96 13.64L98.96 13.64L98.96 13.76Q102.20 14.20 103.48 15.68Q104.76 17.16 104.76 20.64L104.76 20.64L104.76 22.76Q104.76 24.84 104.98 25.56Q105.20 26.28 105.92 26.28Q106.64 26.28 107.06 25.62Q107.48 24.96 107.84 22.84L107.84 22.84L108.52 22.92Q108.08 26.32 106.98 27.48Q105.88 28.64 102.60 28.64Q99.32 28.64 97.94 27.10Q96.56 25.56 96.56 21.32L96.56 21.32L96.56 18.40Q96.56 16.16 95.98 15.12Q95.40 14.08 93.84 14.08ZM93.04 1L91.72 1L91.72 13.32L93 13.32Q95.28 13.32 96.38 11.92Q97.48 10.52 97.48 7.36L97.48 7.36L97.48 6.20Q97.48 3.04 96.42 2.02Q95.36 1 93.04 1L93.04 1ZM117 0.88L122.44 13.40L128.12 0.88L124.08 0.88L124.08 0.24L131.96 0.24L131.96 0.88L129.32 0.88L123.28 14.24L123.28 27.48L125.72 27.48L125.72 28.24L113.04 28.24L113.04 27.48L115.48 27.48L115.48 15.00L108.68 0.88L106.80 0.88L106.80 0.24L119.60 0.24L119.60 0.88L117 0.88Z" transform="translate(329.251 109.125) scale(1.431)"></path><path fill="#000000" fill-rule="nonzero" d="M0 0.76L0 0L11.96 0Q17.52 0 20.30 1.50Q23.08 3 23.08 6.56L23.08 6.56Q23.08 12.04 16.48 13.12L16.48 13.12L16.48 13.20Q24.48 14.20 24.48 20.16L24.48 20.16Q24.48 24.52 21.20 26.26Q17.92 28 11.76 28L11.76 28L0 28L0 27.24L2.60 27.24L2.60 0.76L0 0.76ZM11.32 13.84L10.40 13.84L10.40 27.24L12.28 27.24Q14.48 27.24 15.36 25.72Q16.24 24.20 16.24 21.24L16.24 21.24L16.24 19.12Q16.24 16.48 15.16 15.16Q14.08 13.84 11.32 13.84L11.32 13.84ZM11.68 0.76L10.40 0.76L10.40 13.08L11.44 13.08Q13.52 13.08 14.34 11.82Q15.16 10.56 15.16 7.96L15.16 7.96L15.16 6.08Q15.16 3.12 14.44 1.94Q13.72 0.76 11.68 0.76L11.68 0.76ZM30.78 28.40Q29.04 28.40 28.18 27.38Q27.32 26.36 27.32 24.90Q27.32 23.44 28.22 22.44Q29.12 21.44 30.76 21.44Q32.40 21.44 33.36 22.28Q34.32 23.12 34.32 24.80Q34.32 26.48 33.42 27.44Q32.52 28.40 30.78 28.40Z" transform="translate(329.251 158.084) scale(5.499)"></path></svg>